<svg width="18" height="18" viewBox="0 0 18 18" fill="none" xmlns="http://www.w3.org/2000/svg">
<g clip-path="url(#clip0_113_63)">
<path d="M17.64 9.19999C17.64 8.56298 17.583 7.94899 17.476 7.35999H9V10.841H13.844C13.7438 11.3916 13.5329 11.9161 13.2242 12.383C12.9155 12.8498 12.5154 13.2492 12.048 13.557V15.816H14.956C16.658 14.249 17.64 11.941 17.64 9.20099V9.19999Z" fill="#4285F4"/>
<path d="M9.00003 18C11.43 18 13.467 17.194 14.956 15.82L12.048 13.561C11.242 14.101 10.211 14.421 9.00003 14.421C6.65603 14.421 4.67203 12.837 3.96403 10.71H0.957031V13.042C1.70608 14.533 2.85497 15.7862 4.27532 16.6618C5.69566 17.5373 7.33151 18.0007 9.00003 18Z" fill="#34A853"/>
<path d="M3.964 10.71C3.77872 10.1589 3.6835 9.58146 3.682 9.00001C3.682 8.40701 3.784 7.83001 3.964 7.29001V4.95801H0.957001C0.327091 6.21225 -0.000642754 7.59647 9.46384e-07 9.00001C9.46384e-07 10.452 0.348001 11.827 0.957001 13.042L3.964 10.71Z" fill="#FBBC05"/>
<path d="M9.00003 3.58C10.321 3.58 11.508 4.034 12.44 4.925L15.022 2.345C13.463 0.891001 11.426 7.07085e-07 9.00003 7.07085e-07C7.33151 -0.000660682 5.69566 0.462675 4.27532 1.33823C2.85497 2.21378 1.70608 3.46706 0.957031 4.958L3.96403 7.29C4.67203 5.163 6.65603 3.58 9.00003 3.58Z" fill="#EA4335"/>
</g>
<defs>
<clipPath id="clip0_113_63">
<rect width="18" height="18" fill="white"/>
</clipPath>
</defs>
</svg>
