<svg width="109" height="109" viewBox="0 0 109 109" fill="none" xmlns="http://www.w3.org/2000/svg">
<path d="M57.7161 9.43164C59.523 9.43164 61.3318 9.43164 63.1387 9.43164C64.4053 9.62028 65.6738 9.79335 66.9365 10.0034C82.2418 12.549 94.8068 24.4738 98.1708 39.6988C98.6143 41.7058 98.8351 43.7632 99.1585 45.7993V51.05C99.1004 51.2989 99.0132 51.5459 98.9919 51.7968C98.5 57.5161 96.7919 62.8484 93.9431 67.8171C93.5616 68.4822 94.1116 70.5514 94.8339 70.8081C97.2083 71.654 98.4826 73.4256 99.1585 75.7457V77.8848C99.1081 77.9645 99.0365 78.0404 99.0113 78.1279C98.0604 81.4514 95.8546 83.1335 92.4344 83.1355C87.8872 83.1374 83.338 83.118 78.7907 83.1569C78.1129 83.1627 77.3886 83.3319 76.7669 83.6119C66.5278 88.2092 56.1881 88.4717 45.7844 84.2848C43.4391 83.3416 41.2352 82.0445 38.8105 80.831C38.702 80.9671 38.52 81.2355 38.2973 81.4689C30.9128 89.2126 23.5032 96.9311 16.1555 104.708C14.308 106.662 12.4178 108.444 9.68326 109.002H7.16561C6.95839 108.932 6.75698 108.846 6.54589 108.792C3.45305 107.965 1.36728 106.061 0.3699 102.989C0.242081 102.596 0.123945 102.201 0 101.808C0 100.966 0 100.122 0 99.2803C0.548072 96.6122 2.23296 94.7278 4.13863 92.9114C11.9336 85.4847 19.6686 77.9957 27.4307 70.5358C27.6612 70.3141 27.9401 70.141 28.1899 69.9505C21.4407 59.2138 19.9882 47.9152 23.6775 35.8697C23.2243 35.8697 22.8738 35.8697 22.5233 35.8697C17.9082 35.8697 13.2951 35.9028 8.68008 35.8561C5.25027 35.8211 2.59899 33.3086 2.19617 29.8431C1.83208 26.6966 4.03211 23.6357 7.25083 22.8597C7.75048 22.7392 7.99838 22.5544 8.13588 22.0235C9.23783 17.7452 11.9162 14.8962 16.1536 13.7625C20.482 12.6034 24.2314 13.8519 27.3397 17.0821C27.5682 17.3213 27.8917 17.6344 28.1705 17.6324C30.3977 17.6188 32.3363 18.3461 34.027 19.8338C34.2884 19.6199 34.5169 19.4488 34.73 19.2582C39.7904 14.7757 45.6004 11.7594 52.2044 10.3456C54.0229 9.95671 55.8763 9.73307 57.7122 9.43358L57.7161 9.43164ZM83.5588 62.5004C83.7602 62.1639 83.95 61.8703 84.1165 61.563C87.1764 55.9662 88.1467 50.0213 87.1532 43.7185C85.1894 31.255 73.9046 21.3623 61.3492 21.1076C56.6451 21.0123 52.1986 21.9885 47.9999 24.1257C46.8069 24.7325 45.6837 24.3902 45.1782 23.3595C44.6669 22.3191 45.0911 21.2631 46.2879 20.6545C52.797 17.3485 59.6585 16.3314 66.7777 17.8852C87.6955 22.4475 97.8222 45.6729 87.0583 64.2447C86.9537 64.4256 86.8782 64.624 86.8085 64.7718C88.1021 65.0907 89.3397 65.3979 90.5985 65.7091C97.6866 54.1401 97.4581 36.0448 85.0422 23.5715C72.8045 11.2752 53.5542 9.88281 39.6452 20.2441C25.7478 30.5977 21.5046 49.6732 29.7741 64.9429C38.1869 80.4771 54.5768 84.8138 65.149 82.8749C63.559 82.2798 62.3408 81.4028 61.5526 80.0531C61.2621 79.5553 60.9174 79.4814 60.4003 79.4192C57.718 79.1002 54.9622 79.0166 52.3806 78.3068C36.1069 73.834 26.5747 57.8331 30.3008 41.2663C30.8625 38.7693 31.9896 36.3929 32.956 34.0009C33.4111 32.873 34.5286 32.5229 35.524 32.9838C36.5388 33.4525 36.901 34.5629 36.4032 35.7064C36.2483 36.0623 36.0585 36.4026 35.8939 36.7526C34.3794 39.9866 33.5137 43.3957 33.3588 46.9564C32.7914 59.9295 41.0531 71.2437 53.5349 74.6352C55.8395 75.2614 58.1867 75.5804 60.5591 75.5337C61.2098 72.708 62.8056 70.8684 65.5324 70.1508C66.127 69.9932 66.3497 69.7677 66.4969 69.1765C67.6395 64.5695 71.4431 61.2694 76.1395 60.719C78.8159 60.4059 81.2483 61.0963 83.5646 62.4984L83.5588 62.5004ZM79.8907 79.2461C84.1824 79.2461 88.472 79.2578 92.7637 79.2403C94.1813 79.2344 95.2116 78.2562 95.2774 76.9397C95.3433 75.6251 94.4059 74.5788 92.998 74.398C91.5823 74.2152 91.1717 73.8126 90.887 72.321C90.4281 69.9291 88.5766 68.5406 86.1926 68.9392C84.9047 69.1551 84.0739 68.7875 83.3438 67.6946C81.5873 65.0693 78.4383 63.9666 75.4384 64.799C72.4095 65.641 70.3237 68.1691 70.0661 71.3156C69.9015 73.3167 69.3941 73.7348 67.4245 73.8574C66.6983 73.904 65.9004 74.1704 65.3 74.5808C64.415 75.1856 64.1884 76.4691 64.568 77.4862C64.9669 78.5596 65.9527 79.2383 67.2134 79.2403C71.4392 79.2519 75.665 79.2441 79.8927 79.2441L79.8907 79.2461ZM22.6879 80.5063C22.4555 80.7241 22.1979 80.9633 21.9442 81.2083C16.446 86.4959 10.944 91.7816 5.45168 97.075C3.67964 98.7825 3.37365 101.161 4.64216 103.065C6.33092 105.599 9.67939 105.826 11.8988 103.51C17.3137 97.8626 22.7053 92.1919 28.1047 86.529C28.2112 86.4162 28.2945 86.282 28.3468 86.212C26.4527 84.3023 24.5916 82.4218 22.6898 80.5043L22.6879 80.5063ZM31.3176 22.6555C30.2466 21.7221 29.1079 21.3623 27.7871 21.6443C26.6619 21.8835 25.8175 21.6054 25.1377 20.5845C23.3231 17.856 20.2748 16.6912 17.2226 17.4613C14.1821 18.2275 12.0634 20.7731 11.7071 24.0849C11.4882 26.1113 11.0525 26.5138 9.03448 26.5449C7.26438 26.5722 6.02105 27.7176 6.0501 29.2928C6.07915 30.8369 7.30118 31.9667 9.01705 31.9706C14.2092 31.9842 19.3994 31.9628 24.5916 31.992C25.1997 31.9959 25.3817 31.6925 25.6548 31.2511C27.1828 28.7833 28.7496 26.3407 30.3202 23.9002C30.5933 23.4762 30.9535 23.1067 31.3195 22.6555H31.3176ZM30.1072 73.1378C28.8154 74.6138 27.33 76.3077 25.8872 77.9548C27.5004 79.5786 29.319 81.4086 30.9051 83.0032C32.5629 81.5311 34.2497 80.0317 35.7041 78.7405C33.8139 76.8483 32.0593 75.0942 30.1052 73.1398L30.1072 73.1378Z" fill="#201E20"/>
<path d="M50.7384 46.3867C51.7726 46.3828 52.646 47.2307 52.6751 48.2653C52.706 49.3388 51.8229 50.2547 50.7539 50.2606C49.6868 50.2664 48.794 49.3543 48.8153 48.2828C48.8366 47.2463 49.7042 46.3906 50.7365 46.3867H50.7384Z" fill="#14B8A6"/>
<path d="M62.3583 48.3373C62.3506 49.4127 61.4326 50.2975 60.3675 50.2625C59.3372 50.2275 58.4928 49.3446 58.5005 48.3101C58.5083 47.2366 59.4243 46.3537 60.4914 46.3887C61.5256 46.4237 62.3661 47.3027 62.3583 48.3392V48.3373Z" fill="#14B8A6"/>
<path d="M70.0681 50.262C68.999 50.2367 68.1314 49.3033 68.1818 48.2317C68.2321 47.1972 69.123 46.3629 70.1533 46.3862C71.2223 46.4096 72.0919 47.343 72.0396 48.4126C71.9892 49.4472 71.0964 50.2834 70.0681 50.26V50.262Z" fill="#14B8A6"/>
<path d="M41.822 27.6595C41.8433 28.7252 40.9408 29.6469 39.8795 29.6392C38.857 29.6333 37.9855 28.766 37.9642 27.7334C37.9448 26.6832 38.7602 25.8101 39.8021 25.7653C40.8769 25.7206 41.7988 26.584 41.822 27.6575V27.6595Z" fill="#201E20"/>
<path opacity="0.1" d="M60.6297 99.3114C87.2089 99.3114 108.755 77.6753 108.755 50.9858C108.755 24.2963 87.2089 2.66016 60.6297 2.66016C34.0506 2.66016 12.5039 24.2963 12.5039 50.9858C12.5039 77.6753 34.0506 99.3114 60.6297 99.3114Z" fill="#14B8A6"/>
</svg>
