<svg width="18" height="18" viewBox="0 0 18 18" fill="none" xmlns="http://www.w3.org/2000/svg">
<g clip-path="url(#clip0_113_77)">
<path d="M16.5 13.2052C15.9105 14.9152 14.1458 17.943 12.3278 17.976C11.1217 17.9993 10.734 17.2612 9.3555 17.2612C7.97775 17.2612 7.5465 17.9535 6.4065 17.9985C4.4775 18.0728 1.5 13.6283 1.5 9.75225C1.5 6.192 3.981 4.42725 6.1485 4.395C7.311 4.374 8.409 5.17875 9.11775 5.17875C9.8295 5.17875 11.163 4.21125 12.5648 4.353C13.1512 4.37775 14.799 4.58925 15.8565 6.13575C13.0507 7.96725 13.488 11.7975 16.5 13.2052ZM12.5835 0C10.464 0.0855 8.7345 2.30925 8.976 4.14825C10.935 4.3005 12.8145 2.1045 12.5835 0Z" fill="white"/>
</g>
<defs>
<clipPath id="clip0_113_77">
<rect width="18" height="18" fill="white"/>
</clipPath>
</defs>
</svg>
