<svg width="48" height="48" viewBox="0 0 48 48" fill="none" xmlns="http://www.w3.org/2000/svg">
<path d="M22.5301 47.04C34.2098 47.04 43.6781 37.5717 43.6781 25.892C43.6781 14.2123 34.2098 4.74399 22.5301 4.74399C10.8504 4.74399 1.38208 14.2123 1.38208 25.892C1.38208 37.5717 10.8504 47.04 22.5301 47.04Z" fill="#463F47"/>
<path d="M38.9941 25.594C39.3001 32.934 34.9201 38.746 23.7821 38.746C15.3801 38.746 8.57007 32.858 8.57007 25.594C8.57007 18.33 15.3821 12.442 23.7821 12.442C32.1821 12.442 38.6901 18.336 38.9941 25.594Z" fill="#C9DA57"/>
<path d="M34.2339 41.758C34.8955 41.758 35.4319 41.2216 35.4319 40.56C35.4319 39.8984 34.8955 39.362 34.2339 39.362C33.5723 39.362 33.0359 39.8984 33.0359 40.56C33.0359 41.2216 33.5723 41.758 34.2339 41.758Z" fill="#305D7E"/>
<path d="M34.1661 41.256C33.3101 41.034 33.6661 40.332 33.5721 39.764C33.5621 39.828 33.0361 40.492 33.0361 40.558C33.0361 41.22 33.5721 41.756 34.2341 41.756C34.8961 41.756 35.4321 41.22 35.4321 40.558C35.4321 40.49 35.3841 40.016 35.3721 39.952C35.4321 40.558 34.8801 41.438 34.1661 41.254V41.256ZM19.0301 37.58C19.0301 37.58 16.3841 41.906 17.5681 46.446C18.9441 46.81 20.8261 47.022 22.5301 47.038C25.4441 47.066 27.5601 46.548 29.8381 45.708C30.0201 45.634 30.1981 45.564 30.3701 45.494C30.9221 44.378 32.0501 41.568 32.4201 36.626C32.9181 29.984 19.0301 37.58 19.0301 37.58Z" fill="#1A1C41"/>
<path d="M29.1021 40.344C29.2701 40.958 31.3321 40.092 30.8861 41.34C29.8101 44.344 27.1121 46.03 25.4441 46.864C27.1101 46.622 28.8341 46.154 30.3521 45.546C30.9041 44.43 32.0521 41.57 32.4221 36.628C32.5681 34.688 30.7081 40.4 29.1021 40.346V40.344Z" fill="#305D7E"/>
<path d="M32.9359 41.24C33.1492 41.2141 33.352 41.1325 33.5237 41.0033C33.6954 40.874 33.83 40.7018 33.9139 40.504C34.1239 40.004 34.1199 39.012 33.3479 38.166C32.0239 36.718 30.9099 37.098 30.5399 37.538C30.0659 38.1 30.8499 41.502 32.9359 41.238V41.24ZM38.6519 38.792C39.6599 37.184 39.8899 35.432 39.4339 35.132C39.0339 34.868 37.4699 35.484 36.1459 36.92C34.8719 38.3 34.0519 39.776 35.1539 40.746C36.4219 41.862 37.6559 40.384 38.6539 38.792H38.6519Z" fill="#437789"/>
<path d="M31.4999 38.498C31.5579 37.994 32.0339 37.556 32.8419 37.692C31.7459 36.82 30.8619 37.158 30.5399 37.54C30.0659 38.102 30.8499 41.504 32.9359 41.24C33.1599 41.212 33.4559 41.104 33.6499 40.894C32.1579 40.918 31.4079 39.298 31.4999 38.496V38.498Z" fill="#305D7E"/>
<path d="M38.9939 25.92C39.2959 33.25 34.9719 39.056 23.9779 39.056C15.6839 39.056 8.96191 33.174 8.96191 25.92C8.96191 18.666 15.6839 12.784 23.9779 12.784C32.2719 12.784 38.6939 18.672 38.9939 25.92Z" fill="#437789"/>
<path d="M26.0521 38.602C33.9696 38.602 40.3881 33.396 40.3881 26.974C40.3881 20.552 33.9696 15.346 26.0521 15.346C18.1345 15.346 11.7161 20.552 11.7161 26.974C11.7161 33.396 18.1345 38.602 26.0521 38.602Z" fill="#C0D458"/>
<path d="M35.8041 37.544C37.1281 36.108 38.6921 35.494 39.0921 35.756C39.4821 36.012 39.3721 37.328 38.7021 38.71C39.6681 37.124 39.8821 35.428 39.4321 35.132C39.0321 34.868 37.4681 35.484 36.1441 36.92C35.5841 37.528 35.1101 38.154 34.8501 38.746C35.1061 38.346 35.4361 37.942 35.8021 37.544H35.8041Z" fill="#88C0B5"/>
<path d="M24.8839 38.374C16.5899 38.374 9.76391 30.662 9.76391 23.406C9.76391 22.632 9.84191 21.874 9.98791 21.138C9.32591 22.62 8.96191 24.232 8.96191 25.92C8.96191 33.358 15.8679 39.2 24.1599 39.2C29.4539 39.2 33.5659 37.488 35.7639 35.268C37.4619 33.552 36.2939 33.768 34.0959 35.436C31.8119 37.17 28.7799 38.376 24.8839 38.376V38.374Z" fill="#1A1C41"/>
<path d="M38.7559 38.216C37.7579 39.806 36.2959 41.102 35.1299 40.396C34.8619 40.234 34.6439 39.864 34.6479 39.452C34.5799 39.692 34.5959 40.336 35.1419 40.786C36.3259 41.758 37.5579 40.662 38.6579 38.794C39.2299 37.822 39.5799 36.834 39.6499 36.112C39.5019 36.746 39.2079 37.496 38.7559 38.218V38.216Z" fill="#305D7E"/>
<path d="M27.7561 36.072C19.8381 36.072 12.4981 33.21 13.0901 23.52C13.2201 21.4 14.1541 20.486 14.1541 20.486C12.6141 22.34 11.7161 24.572 11.7161 26.974C11.7161 33.396 18.1341 38.602 26.0521 38.602C32.5941 38.602 38.1101 35.048 39.8321 30.192C37.2581 33.292 32.7101 36.072 27.7561 36.072Z" fill="#719C3D"/>
<path d="M40.188 38.72C40.19 39.05 40.004 39.358 39.706 39.496C39.46 39.61 39.106 39.702 38.61 39.684C37.996 39.664 37.606 39.462 37.366 39.256C37.2541 39.1603 37.1691 39.0371 37.1193 38.8986C37.0695 38.7601 37.0567 38.611 37.082 38.466L38.346 30.91L40.138 31.078L40.188 38.716V38.72Z" fill="#719C3D"/>
<path d="M40.1679 35.846L40.1499 33.092C39.6219 32.93 39.2119 32.844 39.2119 32.844L38.1839 32.586L37.7279 34.812C37.6219 35.838 38.0959 36.08 40.1679 35.846Z" fill="#305D7E"/>
<path d="M41.4266 34.306L38.5156 34.3827C38.4052 34.3856 38.318 34.4775 38.3209 34.5879L38.3383 35.2457C38.3412 35.3561 38.4331 35.4432 38.5435 35.4403L41.4545 35.3636C41.5649 35.3607 41.652 35.2688 41.6491 35.1584L41.6318 34.5006C41.6289 34.3902 41.537 34.3031 41.4266 34.306Z" fill="#C9DA57"/>
<path d="M40.1461 32.362L40.1381 31.082L38.3461 30.914L37.0821 38.47C37.0321 38.764 37.1401 39.066 37.3661 39.26C37.6061 39.464 37.9961 39.666 38.6101 39.688C39.1041 39.704 39.4581 39.614 39.7041 39.5C40.0041 39.362 40.1921 39.054 40.1901 38.722V38.362C40.1021 38.526 39.9641 38.66 39.7901 38.742C39.5341 38.86 39.1661 38.956 38.6501 38.938C38.3381 38.928 38.0821 38.872 37.8741 38.794C37.7814 38.7596 37.7035 38.6942 37.6535 38.6089C37.6036 38.5236 37.5847 38.4237 37.6001 38.326L38.6221 32.222L40.1481 32.366L40.1461 32.362Z" fill="#1A1C41"/>
<path d="M18.898 45.182C19.5088 45.182 20.004 44.6868 20.004 44.076C20.004 43.4652 19.5088 42.97 18.898 42.97C18.2872 42.97 17.792 43.4652 17.792 44.076C17.792 44.6868 18.2872 45.182 18.898 45.182Z" fill="#305D7E"/>
<path d="M20.626 0.968001C19.932 1.14 18.194 1.764 14.694 4.022C11.99 5.764 10.616 7.64 9.93602 8.922C9.70802 9.35 9.55802 9.712 9.46202 9.982C8.84002 11.268 7.82202 13.398 7.74402 14.504C7.68402 15.362 12.078 17.908 13.306 18.05C13.428 18.064 13.976 17.898 13.414 17.574C12.852 17.25 8.74802 14.722 9.03602 14.002C9.27602 13.404 10.216 11.578 10.648 10.644C12.188 10.514 14.69 9.754 17.144 7.848C19.99 5.638 20.858 2.328 20.972 1.274C20.994 1.078 20.814 0.922001 20.624 0.970001L20.626 0.968001Z" fill="#C0D458"/>
<path d="M38.6986 33.9936L38.2335 31.7942C38.2107 31.6862 38.1045 31.6171 37.9965 31.6399L37.3527 31.7761C37.2446 31.7989 37.1756 31.9051 37.1984 32.0131L37.6635 34.2125C37.6863 34.3206 37.7925 34.3896 37.9005 34.3668L38.5443 34.2307C38.6524 34.2078 38.7215 34.1017 38.6986 33.9936Z" fill="#91B14C"/>
<path d="M46.604 9.27001C46.174 8.98401 43.94 8.71801 40.918 8.77201C38.238 8.82001 36.84 9.43601 35.814 9.70401C35.472 9.79401 35.202 9.89201 35.01 9.97401C33.804 10.394 32.364 10.928 31.728 11.432C31.234 11.822 31.99 15.28 32.51 16.006C32.562 16.078 32.918 16.29 32.82 15.83C32.722 15.37 32.126 12.152 32.656 11.95C33.098 11.784 34.616 11.26 35.332 11.028C36.36 11.786 37.676 12.656 39.902 13.03C42.482 13.462 44.242 12.174 44.85 11.69C46.018 10.76 46.72 9.34601 46.602 9.26801L46.604 9.27001Z" fill="#C0D458"/>
<path d="M31.5919 39.436L31.0519 39.39V39.376L31.0479 39.352C30.9959 39.082 30.7099 38.914 30.4099 38.98C30.4099 38.98 29.3519 39.168 28.5859 39.37C27.7999 39.576 27.1799 40.172 27.0119 40.902C26.9799 41.042 26.9559 41.194 26.9439 41.36C26.8779 42.228 27.6419 42.476 28.2099 42.54C28.2699 42.748 28.4759 42.896 28.7279 42.888L31.0499 42.812C31.3299 42.802 31.5839 42.612 31.6279 42.358C31.6819 42.05 31.4279 41.794 31.0999 41.804L31.5179 41.79C31.8739 41.778 32.1959 41.584 32.1819 41.178C32.1639 40.694 31.6599 40.668 31.3059 40.68L31.5559 40.672C31.9199 40.66 32.2699 40.554 32.2659 40.046C32.2639 39.682 32.0039 39.462 31.5939 39.438L31.5919 39.436Z" fill="#C9DA57"/>
<path d="M31.844 33.438C30.72 33.438 29.87 32.984 29.856 32.974C29.736 32.894 29.704 32.734 29.784 32.614C29.86 32.498 30.014 32.464 30.132 32.534C30.202 32.57 32.39 33.664 34.182 31.966C34.2323 31.921 34.2981 31.8974 34.3654 31.9002C34.4328 31.903 34.4964 31.932 34.5428 31.9809C34.5892 32.0299 34.6146 32.095 34.6137 32.1624C34.6128 32.2299 34.5857 32.2943 34.538 32.342C33.642 33.192 32.67 33.438 31.844 33.438Z" fill="#1A1C41"/>
<path d="M42.0652 31.7459L38.4945 31.8401C38.3586 31.8437 38.2514 31.9567 38.255 32.0925L38.2763 32.8982C38.2798 33.034 38.3928 33.1412 38.5287 33.1376L42.0994 33.0435C42.2352 33.0399 42.3424 32.9269 42.3388 32.7911L42.3176 31.9854C42.314 31.8496 42.201 31.7424 42.0652 31.7459Z" fill="#C9DA57"/>
<path d="M41.8535 33.0511L38.4327 33.1412C38.3024 33.1447 38.1996 33.2531 38.203 33.3834L38.2233 34.1551C38.2268 34.2854 38.3352 34.3882 38.4655 34.3848L41.8863 34.2946C42.0166 34.2912 42.1194 34.1828 42.116 34.0525L42.0956 33.2808C42.0922 33.1505 41.9838 33.0476 41.8535 33.0511Z" fill="#C9DA57"/>
<path d="M32.658 11.952C33.082 11.792 34.588 11.274 35.334 11.03C35.446 10.598 35.466 10.198 35.586 9.76801C35.35 9.83801 35.156 9.91201 35.008 9.97401C33.802 10.394 32.362 10.928 31.726 11.432C31.232 11.822 31.988 15.28 32.508 16.006C32.56 16.078 32.916 16.29 32.818 15.83C32.72 15.37 32.124 12.152 32.654 11.95L32.658 11.952ZM31.048 42.338L28.726 42.414C28.476 42.422 28.268 42.274 28.208 42.066C27.716 42.01 27.078 41.818 26.958 41.204C26.952 41.254 26.946 41.306 26.942 41.36C26.876 42.228 27.64 42.476 28.208 42.54C28.268 42.748 28.474 42.896 28.726 42.888L31.048 42.812C31.328 42.802 31.582 42.612 31.626 42.358C31.646 42.242 31.622 42.132 31.568 42.042C31.468 42.214 31.266 42.332 31.048 42.338Z" fill="#91B14C"/>
<path d="M23.2721 13.438C30.8061 13.438 36.9001 17.97 38.7821 24.08C37.5741 17.7 31.5561 12.784 23.9781 12.784C20.4561 12.784 17.2161 13.846 14.6541 15.622C17.1461 14.238 20.1021 13.436 23.2721 13.436V13.438Z" fill="#88C0B5"/>
<path d="M25.4201 16.156C33.4101 16.156 39.9361 21.234 40.3661 27.628C40.3801 27.412 40.3881 27.194 40.3881 26.974C40.3881 20.552 33.9701 15.27 26.0521 15.27C21.5661 15.27 17.5621 17.018 14.9341 19.634C17.6341 17.484 21.3361 16.156 25.4201 16.156Z" fill="#EDE27F"/>
<path d="M39.858 31.478C43.5661 31.478 46.572 28.472 46.572 24.764C46.572 21.0559 43.5661 18.05 39.858 18.05C36.15 18.05 33.144 21.0559 33.144 24.764C33.144 28.472 36.15 31.478 39.858 31.478Z" fill="#437789"/>
<path d="M39.858 31.144C43.3816 31.144 46.238 28.2876 46.238 24.764C46.238 21.2404 43.3816 18.384 39.858 18.384C36.3344 18.384 33.478 21.2404 33.478 24.764C33.478 28.2876 36.3344 31.144 39.858 31.144Z" fill="#1A1C41"/>
<path d="M39.858 30.59C43.0756 30.59 45.684 27.9816 45.684 24.764C45.684 21.5464 43.0756 18.938 39.858 18.938C36.6404 18.938 34.032 21.5464 34.032 24.764C34.032 27.9816 36.6404 30.59 39.858 30.59Z" fill="#88C0B5"/>
<path d="M13.4141 17.574C12.8521 17.25 8.74806 14.722 9.03606 14.002C9.27606 13.406 10.2061 11.598 10.6421 10.658C10.4961 10.274 10.3521 9.89001 10.1861 9.51201C10.1021 9.32201 10.0141 9.13401 9.92006 8.94601C9.70006 9.36401 9.55406 9.71601 9.46006 9.98001C8.83806 11.266 7.82006 13.396 7.74206 14.502C7.68206 15.36 12.0761 17.906 13.3041 18.048C13.4261 18.062 13.9741 17.896 13.4121 17.572L13.4141 17.574Z" fill="#91B14C"/>
<path d="M17.1461 7.848C17.9461 7.228 18.5901 6.52 19.1041 5.798C16.3521 8.078 12.6701 9.248 12.5581 7.69401C12.4401 6.04 16.8161 3.154 19.3201 1.436C18.3341 1.864 16.8481 2.634 14.6921 4.022C11.9881 5.764 10.6141 7.64 9.93409 8.922C9.91009 8.966 9.77209 9.246 9.75009 9.288C9.52609 10.058 9.75009 10.53 10.6381 10.664C10.6421 10.656 10.6461 10.648 10.6481 10.642C12.1881 10.512 14.6901 9.752 17.1441 7.846L17.1461 7.848ZM39.9061 13.032C42.4861 13.464 44.2461 12.176 44.8541 11.692C45.0101 11.568 45.1581 11.434 45.2961 11.298C42.3581 12.68 39.0141 12.336 38.1181 10.902C37.5581 10.006 39.9961 9.25 42.2481 8.768C41.8261 8.762 41.3821 8.764 40.9181 8.772C38.2381 8.82 36.8401 9.436 35.8141 9.70401C35.5101 9.78401 35.2641 9.87 35.0781 9.94401C35.0061 10.246 35.0701 10.6 35.3381 11.03C36.3661 11.788 37.6821 12.656 39.9061 13.028V13.032Z" fill="#437789"/>
<path d="M20.7639 41.3634C21.056 39.6047 20.4572 38.0403 19.4264 37.8691C18.3956 37.6979 17.3232 38.9848 17.0311 40.7434C16.739 42.5021 17.3378 44.0666 18.3686 44.2378C19.3994 44.409 20.4719 43.1221 20.7639 41.3634Z" fill="#437789"/>
<path d="M18.4661 43.39C17.6681 43.258 17.1121 42.344 16.9841 41.138C16.8361 42.73 17.4181 44.08 18.3721 44.238C19.4021 44.41 20.4741 43.122 20.7661 41.364C20.7681 41.346 20.7721 41.328 20.7741 41.31C20.2901 42.658 19.3641 43.54 18.4661 43.392V43.39Z" fill="#305D7E"/>
<path d="M22.7239 41.386C20.3079 42.46 18.6039 44.062 18.9419 44.88C19.2959 45.738 21.4439 45.852 24.0819 45.188C26.6159 44.55 28.7979 43.468 28.2359 41.658C27.5779 39.542 25.1139 40.324 22.7259 41.386H22.7239Z" fill="#437789"/>
<path d="M37.138 25.07C37.082 22.966 38.604 21.188 40.628 20.866C40.026 20.4448 39.3045 20.2281 38.57 20.248C36.674 20.298 35.178 21.876 35.228 23.772C35.268 25.284 36.28 26.542 37.652 26.964C37.3303 26.3834 37.154 25.7336 37.138 25.07Z" fill="#EEE7F5"/>
<path d="M42.7539 19.708C43.3579 20.598 43.7239 21.666 43.7539 22.822C43.8399 26.038 41.2999 28.714 38.0839 28.8C36.9739 28.83 35.9299 28.546 35.0339 28.032C36.1119 29.62 37.9499 30.642 40.0099 30.586C43.2259 30.5 45.7639 27.824 45.6799 24.608C45.6239 22.5 44.4559 20.684 42.7539 19.706V19.708Z" fill="#437789"/>
<path d="M40.026 31.142C36.376 31.238 33.328 28.402 33.144 24.774C33.144 24.83 33.144 24.884 33.146 24.94C33.244 28.646 36.328 31.572 40.034 31.474C43.74 31.376 46.666 28.292 46.568 24.586C46.568 24.53 46.564 24.474 46.562 24.42C46.57 28.052 43.676 31.046 40.026 31.142Z" fill="#975089"/>
<path d="M22.1479 33.266C26.2205 33.266 29.5219 29.9646 29.5219 25.892C29.5219 21.8195 26.2205 18.518 22.1479 18.518C18.0754 18.518 14.7739 21.8195 14.7739 25.892C14.7739 29.9646 18.0754 33.266 22.1479 33.266Z" fill="#1A1A3D"/>
<path d="M22.666 32.96C26.3121 32.96 29.268 30.0042 29.268 26.358C29.268 22.7118 26.3121 19.756 22.666 19.756C19.0198 19.756 16.064 22.7118 16.064 26.358C16.064 30.0042 19.0198 32.96 22.666 32.96Z" fill="#ECE16D"/>
<path d="M29.118 25.94C29.118 28.016 27.566 29.698 25.652 29.698C23.738 29.698 22.186 28.016 22.186 25.94C22.186 23.864 24.214 21.758 26.128 21.758C28.042 21.758 29.116 23.864 29.116 25.94H29.118Z" fill="#91B14C"/>
<path d="M20.4979 30.448C17.4159 28.5 16.4999 24.422 18.4479 21.34C18.4859 21.28 18.5259 21.22 18.5659 21.162C17.9799 21.618 17.4599 22.182 17.0399 22.846C15.0919 25.928 16.0079 30.004 19.0899 31.954C22.1099 33.864 26.0899 33.02 28.0799 30.082C25.9459 31.742 22.9159 31.976 20.4999 30.448H20.4979Z" fill="#91B14C"/>
<path d="M29.394 25.752C29.394 27.768 27.888 29.4 26.03 29.4C24.172 29.4 22.666 27.766 22.666 25.752C22.666 23.738 24.634 21.694 26.492 21.694C28.35 21.694 29.394 23.738 29.394 25.752Z" fill="#975089"/>
<path d="M26.498 28.38C28.0963 28.38 29.392 26.8828 29.392 25.036C29.392 23.1891 28.0963 21.692 26.498 21.692C24.8997 21.692 23.604 23.1891 23.604 25.036C23.604 26.8828 24.8997 28.38 26.498 28.38Z" fill="#1A1A3D"/>
<path d="M26.9961 25.158C27.5948 25.158 28.0801 24.6727 28.0801 24.074C28.0801 23.4753 27.5948 22.99 26.9961 22.99C26.3974 22.99 25.9121 23.4753 25.9121 24.074C25.9121 24.6727 26.3974 25.158 26.9961 25.158Z" fill="#EEE7F5"/>
<path d="M21.5639 32.224C17.6039 31.696 14.8219 28.058 15.3499 24.098C15.3939 23.762 15.4619 23.436 15.5499 23.118C15.249 23.773 15.0481 24.4694 14.9539 25.184C14.4259 29.144 17.2079 32.782 21.1679 33.31C24.7919 33.794 28.1599 31.474 29.0519 28.028C27.7619 30.84 24.7899 32.654 21.5619 32.224H21.5639Z" fill="#437789"/>
<path d="M26.7081 28.594C27.0207 28.594 27.2741 28.3406 27.2741 28.028C27.2741 27.7154 27.0207 27.462 26.7081 27.462C26.3955 27.462 26.1421 27.7154 26.1421 28.028C26.1421 28.3406 26.3955 28.594 26.7081 28.594Z" fill="#EEE7F5"/>
<path d="M21.736 42.24C24.458 40.992 27.282 40.106 28.238 42.736C28.35 42.41 28.356 42.052 28.234 41.658C27.576 39.542 25.112 40.324 22.724 41.386C21.304 42.018 20.13 42.832 19.472 43.562C20.12 43.084 20.888 42.628 21.738 42.24H21.736ZM19.37 38.618C20.102 38.74 20.636 39.498 20.838 40.542C20.856 39.14 20.294 38.01 19.428 37.866C18.432 37.7 17.396 38.898 17.064 40.568C17.58 39.29 18.488 38.47 19.368 38.618H19.37Z" fill="#88C0B5"/>
<path d="M24.7581 44.218C22.0741 44.894 19.8881 44.78 19.5261 43.906C19.4801 43.796 19.4721 43.67 19.4961 43.534C19.0181 44.056 18.7981 44.538 18.9401 44.88C19.2941 45.738 21.4421 45.852 24.0801 45.188C26.0721 44.686 27.8461 43.91 28.2401 42.722C27.4401 43.382 26.1501 43.866 24.7561 44.218H24.7581Z" fill="#305D7E"/>
<path d="M41.122 35.082L38.868 35.142C38.626 35.148 38.418 34.99 38.35 34.77C38.338 34.816 38.332 34.864 38.334 34.914C38.3382 35.0539 38.3975 35.1864 38.4991 35.2827C38.6006 35.379 38.7361 35.4312 38.876 35.428L41.13 35.368C41.2699 35.3638 41.4024 35.3045 41.4987 35.2029C41.595 35.1014 41.6472 34.9659 41.644 34.826C41.644 34.776 41.634 34.728 41.62 34.684C41.5912 34.7954 41.5271 34.8946 41.4374 34.9667C41.3477 35.0387 41.237 35.0799 41.122 35.084V35.082ZM41.496 34.016L38.846 34.086C38.554 34.094 38.302 33.894 38.23 33.622C38.22 33.668 38.216 33.716 38.216 33.764C38.2211 33.9287 38.2909 34.0847 38.4104 34.1982C38.5299 34.3116 38.6893 34.3734 38.854 34.37L41.504 34.3C41.6687 34.2949 41.8247 34.225 41.9382 34.1056C42.0517 33.9861 42.1134 33.8267 42.11 33.662C42.11 33.614 42.102 33.566 42.09 33.52C42.0613 33.6571 41.9873 33.7806 41.88 33.8706C41.7726 33.9605 41.638 34.0118 41.498 34.016H41.496ZM41.692 32.724L38.926 32.798C38.626 32.806 38.366 32.606 38.286 32.33C38.274 32.382 38.266 32.438 38.268 32.494C38.278 32.85 38.578 33.134 38.934 33.126L41.7 33.052C42.056 33.042 42.34 32.742 42.332 32.386C42.332 32.33 42.32 32.274 42.306 32.222C42.24 32.502 41.992 32.716 41.692 32.724ZM31.556 40.672C31.92 40.66 32.27 40.554 32.266 40.046C32.266 39.792 32.136 39.608 31.92 39.512C32.182 39.7 32.182 40.17 31.464 40.278C30.44 40.432 30.302 40.698 30.302 40.698C30.302 40.698 30.882 40.68 31.398 40.676L31.556 40.67V40.672ZM31.486 41.456C30.7 41.556 30.5 41.728 30.408 41.804C30.408 41.804 30.816 41.796 31.164 41.802L31.518 41.79C31.874 41.778 32.196 41.584 32.182 41.178C32.178 41.044 32.134 40.946 32.07 40.874C32.08 41.024 32.08 41.38 31.486 41.456Z" fill="#91B14C"/>
<path d="M7.77393 14.256C7.96193 13.574 8.21393 12.838 8.45993 12.162C8.13793 12.928 7.86593 13.686 7.77393 14.256ZM20.6259 0.967987C20.5339 0.989987 20.4259 1.02199 20.2959 1.06199C20.1199 2.55199 19.3219 5.71199 16.8219 8.03799C16.7299 8.12399 16.6359 8.20799 16.5439 8.28999C16.7439 8.14999 16.9459 8.00199 17.1459 7.84599C19.9919 5.63599 20.8599 2.32599 20.9739 1.27199C20.9959 1.07599 20.8159 0.919987 20.6259 0.967987ZM46.6039 9.26999C46.4899 9.19399 46.2499 9.11999 45.9039 9.05399C45.6739 9.62999 45.1859 10.522 44.4759 11.23C44.0179 11.688 42.8699 12.754 41.0559 13.118C43.0099 13.08 44.3419 12.1 44.8539 11.692C46.0219 10.762 46.7239 9.34799 46.6059 9.26999H46.6039Z" fill="#EDE27F"/>
</svg>
