<svg width="25" height="25" viewBox="0 0 25 25" fill="none" xmlns="http://www.w3.org/2000/svg">
<path d="M12 24C18.6274 24 24 18.6274 24 12C24 5.37258 18.6274 0 12 0C5.37258 0 0 5.37258 0 12C0 18.6274 5.37258 24 12 24Z" fill="#14B8A6" fill-opacity="0.22"/>
<path d="M14.2734 16.9766L14.1016 17.6797C13.5859 17.8828 13.1745 18.0365 12.8672 18.1406C12.5599 18.25 12.2031 18.3047 11.7969 18.3047C11.1719 18.3047 10.6849 18.1536 10.3359 17.8516C9.99219 17.5443 9.82031 17.1562 9.82031 16.6875C9.82031 16.5052 9.83333 16.3203 9.85938 16.1328C9.88542 15.9401 9.92708 15.724 9.98438 15.4844L10.625 13.2031C10.6823 12.9844 10.7292 12.7786 10.7656 12.5859C10.8073 12.388 10.8281 12.2083 10.8281 12.0469C10.8281 11.7552 10.7682 11.5521 10.6484 11.4375C10.5286 11.3229 10.2995 11.2656 9.96094 11.2656C9.79427 11.2656 9.6224 11.2917 9.44531 11.3438C9.27344 11.3958 9.125 11.4453 9 11.4922L9.17188 10.7891C9.59375 10.6172 9.9974 10.4714 10.3828 10.3516C10.7682 10.2266 11.1328 10.1641 11.4766 10.1641C12.0964 10.1641 12.5729 10.3151 12.9062 10.6172C13.2448 10.9141 13.4141 11.3021 13.4141 11.7812C13.4141 11.8802 13.401 12.0547 13.375 12.3047C13.3542 12.5547 13.3125 12.7839 13.25 12.9922L12.6094 15.2656C12.5573 15.4479 12.5104 15.6562 12.4688 15.8906C12.4271 16.125 12.4062 16.3021 12.4062 16.4219C12.4062 16.724 12.474 16.9297 12.6094 17.0391C12.7448 17.1484 12.9792 17.2031 13.3125 17.2031C13.4688 17.2031 13.6458 17.1771 13.8438 17.125C14.0417 17.0677 14.1849 17.0182 14.2734 16.9766ZM14.4375 7.4375C14.4375 7.83333 14.2865 8.17188 13.9844 8.45312C13.6875 8.72917 13.3281 8.86719 12.9062 8.86719C12.4844 8.86719 12.1224 8.72917 11.8203 8.45312C11.5182 8.17188 11.3672 7.83333 11.3672 7.4375C11.3672 7.04167 11.5182 6.70312 11.8203 6.42188C12.1224 6.14062 12.4844 6 12.9062 6C13.3281 6 13.6875 6.14062 13.9844 6.42188C14.2865 6.70312 14.4375 7.04167 14.4375 7.4375Z" fill="black"/>
<path d="M17 19.5C17 20.2956 17.3161 21.0587 17.8787 21.6213C18.4413 22.1839 19.2044 22.5 20 22.5C20.7956 22.5 21.5587 22.1839 22.1213 21.6213C22.6839 21.0587 23 20.2956 23 19.5C23 18.7044 22.6839 17.9413 22.1213 17.3787C21.5587 16.8161 20.7956 16.5 20 16.5C19.2044 16.5 18.4413 16.8161 17.8787 17.3787C17.3161 17.9413 17 18.7044 17 19.5Z" fill="white" stroke="black" stroke-width="1.4" stroke-linecap="round" stroke-linejoin="round"/>
<path d="M22.1992 21.7L23.9992 23.5" stroke="black" stroke-width="1.4" stroke-linecap="round" stroke-linejoin="round"/>
</svg>
